<mxfile host="app.diagrams.net" modified="2020-10-25T14:44:38.949Z" agent="5.0 (Macintosh; Intel Mac OS X 10_15_4) AppleWebKit/537.36 (KHTML, like Gecko) Chrome/86.0.4240.80 Safari/537.36" etag="R5uKggGrbjLqNac9bEIi" version="13.8.2" type="github">
  <diagram name="Page-1" id="9361dd3d-8414-5efd-6122-117bd74ce7a7">
    <mxGraphModel dx="1606" dy="2100" grid="1" gridSize="10" guides="1" tooltips="1" connect="1" arrows="1" fold="1" page="0" pageScale="1.5" pageWidth="826" pageHeight="1169" background="#ffffff" math="0" shadow="0">
      <root>
        <mxCell id="0" />
        <mxCell id="1" parent="0" />
        <mxCell id="jMRB4c11vusRgGaPNcfT-89" value="&lt;span style=&quot;background-color: rgb(248 , 249 , 250)&quot;&gt;管理中心PC界面&lt;/span&gt;" style="shape=umlLifeline;perimeter=lifelinePerimeter;whiteSpace=wrap;html=1;container=1;collapsible=0;recursiveResize=0;outlineConnect=0;" vertex="1" parent="1">
          <mxGeometry x="50" y="-860" width="100" height="300" as="geometry" />
        </mxCell>
        <mxCell id="jMRB4c11vusRgGaPNcfT-124" value="" style="html=1;points=[];perimeter=orthogonalPerimeter;" vertex="1" parent="jMRB4c11vusRgGaPNcfT-89">
          <mxGeometry x="45" y="60" width="10" height="100" as="geometry" />
        </mxCell>
        <mxCell id="jMRB4c11vusRgGaPNcfT-126" value="" style="html=1;points=[];perimeter=orthogonalPerimeter;" vertex="1" parent="jMRB4c11vusRgGaPNcfT-89">
          <mxGeometry x="45" y="190" width="10" height="80" as="geometry" />
        </mxCell>
        <mxCell id="jMRB4c11vusRgGaPNcfT-111" value="&lt;span style=&quot;background-color: rgb(248 , 249 , 250)&quot;&gt;就餐卡后端服务&lt;/span&gt;" style="shape=umlLifeline;perimeter=lifelinePerimeter;whiteSpace=wrap;html=1;container=1;collapsible=0;recursiveResize=0;outlineConnect=0;" vertex="1" parent="1">
          <mxGeometry x="165" y="-860" width="100" height="300" as="geometry" />
        </mxCell>
        <mxCell id="jMRB4c11vusRgGaPNcfT-127" value="" style="html=1;points=[];perimeter=orthogonalPerimeter;" vertex="1" parent="jMRB4c11vusRgGaPNcfT-111">
          <mxGeometry x="43.06" y="190" width="10" height="80" as="geometry" />
        </mxCell>
        <mxCell id="jMRB4c11vusRgGaPNcfT-128" value="缴费" style="html=1;verticalAlign=bottom;endArrow=block;entryX=0;entryY=0;" edge="1" parent="jMRB4c11vusRgGaPNcfT-111" target="jMRB4c11vusRgGaPNcfT-127">
          <mxGeometry relative="1" as="geometry">
            <mxPoint x="-26.940000000000055" y="190" as="sourcePoint" />
          </mxGeometry>
        </mxCell>
        <mxCell id="jMRB4c11vusRgGaPNcfT-129" value="成功" style="html=1;verticalAlign=bottom;endArrow=open;dashed=1;endSize=8;exitX=0;exitY=0.95;" edge="1" parent="jMRB4c11vusRgGaPNcfT-111" source="jMRB4c11vusRgGaPNcfT-127">
          <mxGeometry relative="1" as="geometry">
            <mxPoint x="-26.940000000000055" y="266" as="targetPoint" />
          </mxGeometry>
        </mxCell>
        <mxCell id="jMRB4c11vusRgGaPNcfT-130" value="" style="html=1;points=[];perimeter=orthogonalPerimeter;" vertex="1" parent="jMRB4c11vusRgGaPNcfT-111">
          <mxGeometry x="43.06" y="190" width="10" height="80" as="geometry" />
        </mxCell>
        <mxCell id="jMRB4c11vusRgGaPNcfT-131" value="" style="html=1;verticalAlign=bottom;endArrow=block;entryX=0;entryY=0;" edge="1" parent="jMRB4c11vusRgGaPNcfT-111" target="jMRB4c11vusRgGaPNcfT-130">
          <mxGeometry relative="1" as="geometry">
            <mxPoint x="-26.940000000000055" y="190" as="sourcePoint" />
          </mxGeometry>
        </mxCell>
        <mxCell id="jMRB4c11vusRgGaPNcfT-132" value="" style="html=1;verticalAlign=bottom;endArrow=open;dashed=1;endSize=8;exitX=0;exitY=0.95;" edge="1" parent="jMRB4c11vusRgGaPNcfT-111" source="jMRB4c11vusRgGaPNcfT-130">
          <mxGeometry relative="1" as="geometry">
            <mxPoint x="-26.940000000000055" y="266" as="targetPoint" />
          </mxGeometry>
        </mxCell>
        <mxCell id="jMRB4c11vusRgGaPNcfT-133" value="" style="html=1;points=[];perimeter=orthogonalPerimeter;" vertex="1" parent="jMRB4c11vusRgGaPNcfT-111">
          <mxGeometry x="43.06" y="190" width="10" height="80" as="geometry" />
        </mxCell>
        <mxCell id="jMRB4c11vusRgGaPNcfT-134" value="" style="html=1;verticalAlign=bottom;endArrow=block;entryX=0;entryY=0;" edge="1" parent="jMRB4c11vusRgGaPNcfT-111" target="jMRB4c11vusRgGaPNcfT-133">
          <mxGeometry relative="1" as="geometry">
            <mxPoint x="-26.940000000000055" y="190" as="sourcePoint" />
          </mxGeometry>
        </mxCell>
        <mxCell id="jMRB4c11vusRgGaPNcfT-135" value="" style="html=1;verticalAlign=bottom;endArrow=open;dashed=1;endSize=8;exitX=0;exitY=0.95;" edge="1" parent="jMRB4c11vusRgGaPNcfT-111" source="jMRB4c11vusRgGaPNcfT-133">
          <mxGeometry relative="1" as="geometry">
            <mxPoint x="-26.940000000000055" y="266" as="targetPoint" />
          </mxGeometry>
        </mxCell>
        <mxCell id="jMRB4c11vusRgGaPNcfT-136" value="" style="html=1;points=[];perimeter=orthogonalPerimeter;" vertex="1" parent="jMRB4c11vusRgGaPNcfT-111">
          <mxGeometry x="43.06" y="190" width="10" height="80" as="geometry" />
        </mxCell>
        <mxCell id="jMRB4c11vusRgGaPNcfT-137" value="" style="html=1;verticalAlign=bottom;endArrow=block;entryX=0;entryY=0;" edge="1" parent="jMRB4c11vusRgGaPNcfT-111" target="jMRB4c11vusRgGaPNcfT-136">
          <mxGeometry relative="1" as="geometry">
            <mxPoint x="-26.940000000000055" y="190" as="sourcePoint" />
          </mxGeometry>
        </mxCell>
        <mxCell id="jMRB4c11vusRgGaPNcfT-138" value="" style="html=1;verticalAlign=bottom;endArrow=open;dashed=1;endSize=8;exitX=0;exitY=0.95;" edge="1" parent="jMRB4c11vusRgGaPNcfT-111" source="jMRB4c11vusRgGaPNcfT-136">
          <mxGeometry relative="1" as="geometry">
            <mxPoint x="-26.940000000000055" y="266" as="targetPoint" />
          </mxGeometry>
        </mxCell>
        <mxCell id="jMRB4c11vusRgGaPNcfT-112" value="" style="html=1;points=[];perimeter=orthogonalPerimeter;" vertex="1" parent="1">
          <mxGeometry x="208.06" y="-790" width="10" height="80" as="geometry" />
        </mxCell>
        <mxCell id="jMRB4c11vusRgGaPNcfT-113" value="注册" style="html=1;verticalAlign=bottom;endArrow=block;entryX=0;entryY=0;" edge="1" parent="1" target="jMRB4c11vusRgGaPNcfT-112">
          <mxGeometry relative="1" as="geometry">
            <mxPoint x="138.06" y="-790" as="sourcePoint" />
          </mxGeometry>
        </mxCell>
        <mxCell id="jMRB4c11vusRgGaPNcfT-114" value="成功" style="html=1;verticalAlign=bottom;endArrow=open;dashed=1;endSize=8;exitX=0;exitY=0.95;" edge="1" parent="1" source="jMRB4c11vusRgGaPNcfT-112">
          <mxGeometry relative="1" as="geometry">
            <mxPoint x="138.06" y="-714" as="targetPoint" />
          </mxGeometry>
        </mxCell>
        <mxCell id="jMRB4c11vusRgGaPNcfT-115" value="" style="html=1;points=[];perimeter=orthogonalPerimeter;" vertex="1" parent="1">
          <mxGeometry x="208.06" y="-790" width="10" height="80" as="geometry" />
        </mxCell>
        <mxCell id="jMRB4c11vusRgGaPNcfT-116" value="" style="html=1;verticalAlign=bottom;endArrow=block;entryX=0;entryY=0;" edge="1" parent="1" target="jMRB4c11vusRgGaPNcfT-115">
          <mxGeometry relative="1" as="geometry">
            <mxPoint x="138.06" y="-790" as="sourcePoint" />
          </mxGeometry>
        </mxCell>
        <mxCell id="jMRB4c11vusRgGaPNcfT-117" value="" style="html=1;verticalAlign=bottom;endArrow=open;dashed=1;endSize=8;exitX=0;exitY=0.95;" edge="1" parent="1" source="jMRB4c11vusRgGaPNcfT-115">
          <mxGeometry relative="1" as="geometry">
            <mxPoint x="138.06" y="-714" as="targetPoint" />
          </mxGeometry>
        </mxCell>
        <mxCell id="jMRB4c11vusRgGaPNcfT-118" value="" style="html=1;points=[];perimeter=orthogonalPerimeter;" vertex="1" parent="1">
          <mxGeometry x="208.06" y="-790" width="10" height="80" as="geometry" />
        </mxCell>
        <mxCell id="jMRB4c11vusRgGaPNcfT-119" value="" style="html=1;verticalAlign=bottom;endArrow=block;entryX=0;entryY=0;" edge="1" parent="1" target="jMRB4c11vusRgGaPNcfT-118">
          <mxGeometry relative="1" as="geometry">
            <mxPoint x="138.06" y="-790" as="sourcePoint" />
          </mxGeometry>
        </mxCell>
        <mxCell id="jMRB4c11vusRgGaPNcfT-120" value="" style="html=1;verticalAlign=bottom;endArrow=open;dashed=1;endSize=8;exitX=0;exitY=0.95;" edge="1" parent="1" source="jMRB4c11vusRgGaPNcfT-118">
          <mxGeometry relative="1" as="geometry">
            <mxPoint x="138.06" y="-714" as="targetPoint" />
          </mxGeometry>
        </mxCell>
        <mxCell id="jMRB4c11vusRgGaPNcfT-121" value="" style="html=1;points=[];perimeter=orthogonalPerimeter;" vertex="1" parent="1">
          <mxGeometry x="208.06" y="-790" width="10" height="80" as="geometry" />
        </mxCell>
        <mxCell id="jMRB4c11vusRgGaPNcfT-122" value="" style="html=1;verticalAlign=bottom;endArrow=block;entryX=0;entryY=0;" edge="1" parent="1" target="jMRB4c11vusRgGaPNcfT-121">
          <mxGeometry relative="1" as="geometry">
            <mxPoint x="138.06" y="-790" as="sourcePoint" />
          </mxGeometry>
        </mxCell>
        <mxCell id="jMRB4c11vusRgGaPNcfT-123" value="" style="html=1;verticalAlign=bottom;endArrow=open;dashed=1;endSize=8;exitX=0;exitY=0.95;" edge="1" parent="1" source="jMRB4c11vusRgGaPNcfT-121">
          <mxGeometry relative="1" as="geometry">
            <mxPoint x="138.06" y="-714" as="targetPoint" />
          </mxGeometry>
        </mxCell>
        <mxCell id="jMRB4c11vusRgGaPNcfT-139" value="&lt;span style=&quot;background-color: rgb(248 , 249 , 250)&quot;&gt;收款机&lt;/span&gt;" style="shape=umlLifeline;perimeter=lifelinePerimeter;whiteSpace=wrap;html=1;container=1;collapsible=0;recursiveResize=0;outlineConnect=0;" vertex="1" parent="1">
          <mxGeometry x="350" y="-860" width="100" height="300" as="geometry" />
        </mxCell>
        <mxCell id="jMRB4c11vusRgGaPNcfT-140" value="" style="html=1;points=[];perimeter=orthogonalPerimeter;" vertex="1" parent="jMRB4c11vusRgGaPNcfT-139">
          <mxGeometry x="45" y="60" width="10" height="100" as="geometry" />
        </mxCell>
        <mxCell id="jMRB4c11vusRgGaPNcfT-141" value="" style="html=1;points=[];perimeter=orthogonalPerimeter;" vertex="1" parent="jMRB4c11vusRgGaPNcfT-139">
          <mxGeometry x="45" y="190" width="10" height="80" as="geometry" />
        </mxCell>
        <mxCell id="jMRB4c11vusRgGaPNcfT-142" value="&lt;span style=&quot;background-color: rgb(248 , 249 , 250)&quot;&gt;就餐卡后端服务&lt;/span&gt;" style="shape=umlLifeline;perimeter=lifelinePerimeter;whiteSpace=wrap;html=1;container=1;collapsible=0;recursiveResize=0;outlineConnect=0;" vertex="1" parent="1">
          <mxGeometry x="465" y="-860" width="100" height="300" as="geometry" />
        </mxCell>
        <mxCell id="jMRB4c11vusRgGaPNcfT-143" value="" style="html=1;points=[];perimeter=orthogonalPerimeter;" vertex="1" parent="jMRB4c11vusRgGaPNcfT-142">
          <mxGeometry x="43.06" y="190" width="10" height="80" as="geometry" />
        </mxCell>
        <mxCell id="jMRB4c11vusRgGaPNcfT-144" value="扣款" style="html=1;verticalAlign=bottom;endArrow=block;entryX=0;entryY=0;" edge="1" parent="jMRB4c11vusRgGaPNcfT-142" target="jMRB4c11vusRgGaPNcfT-143">
          <mxGeometry relative="1" as="geometry">
            <mxPoint x="-26.940000000000055" y="190" as="sourcePoint" />
          </mxGeometry>
        </mxCell>
        <mxCell id="jMRB4c11vusRgGaPNcfT-145" value="余额" style="html=1;verticalAlign=bottom;endArrow=open;dashed=1;endSize=8;exitX=0;exitY=0.95;" edge="1" parent="jMRB4c11vusRgGaPNcfT-142" source="jMRB4c11vusRgGaPNcfT-143">
          <mxGeometry relative="1" as="geometry">
            <mxPoint x="-26.940000000000055" y="266" as="targetPoint" />
          </mxGeometry>
        </mxCell>
        <mxCell id="jMRB4c11vusRgGaPNcfT-146" value="" style="html=1;points=[];perimeter=orthogonalPerimeter;" vertex="1" parent="jMRB4c11vusRgGaPNcfT-142">
          <mxGeometry x="43.06" y="190" width="10" height="80" as="geometry" />
        </mxCell>
        <mxCell id="jMRB4c11vusRgGaPNcfT-147" value="" style="html=1;verticalAlign=bottom;endArrow=block;entryX=0;entryY=0;" edge="1" parent="jMRB4c11vusRgGaPNcfT-142" target="jMRB4c11vusRgGaPNcfT-146">
          <mxGeometry relative="1" as="geometry">
            <mxPoint x="-26.940000000000055" y="190" as="sourcePoint" />
          </mxGeometry>
        </mxCell>
        <mxCell id="jMRB4c11vusRgGaPNcfT-148" value="" style="html=1;verticalAlign=bottom;endArrow=open;dashed=1;endSize=8;exitX=0;exitY=0.95;" edge="1" parent="jMRB4c11vusRgGaPNcfT-142" source="jMRB4c11vusRgGaPNcfT-146">
          <mxGeometry relative="1" as="geometry">
            <mxPoint x="-26.940000000000055" y="266" as="targetPoint" />
          </mxGeometry>
        </mxCell>
        <mxCell id="jMRB4c11vusRgGaPNcfT-149" value="" style="html=1;points=[];perimeter=orthogonalPerimeter;" vertex="1" parent="jMRB4c11vusRgGaPNcfT-142">
          <mxGeometry x="43.06" y="190" width="10" height="80" as="geometry" />
        </mxCell>
        <mxCell id="jMRB4c11vusRgGaPNcfT-150" value="" style="html=1;verticalAlign=bottom;endArrow=block;entryX=0;entryY=0;" edge="1" parent="jMRB4c11vusRgGaPNcfT-142" target="jMRB4c11vusRgGaPNcfT-149">
          <mxGeometry relative="1" as="geometry">
            <mxPoint x="-26.940000000000055" y="190" as="sourcePoint" />
          </mxGeometry>
        </mxCell>
        <mxCell id="jMRB4c11vusRgGaPNcfT-151" value="" style="html=1;verticalAlign=bottom;endArrow=open;dashed=1;endSize=8;exitX=0;exitY=0.95;" edge="1" parent="jMRB4c11vusRgGaPNcfT-142" source="jMRB4c11vusRgGaPNcfT-149">
          <mxGeometry relative="1" as="geometry">
            <mxPoint x="-26.940000000000055" y="266" as="targetPoint" />
          </mxGeometry>
        </mxCell>
        <mxCell id="jMRB4c11vusRgGaPNcfT-152" value="" style="html=1;points=[];perimeter=orthogonalPerimeter;" vertex="1" parent="jMRB4c11vusRgGaPNcfT-142">
          <mxGeometry x="43.06" y="190" width="10" height="80" as="geometry" />
        </mxCell>
        <mxCell id="jMRB4c11vusRgGaPNcfT-153" value="" style="html=1;verticalAlign=bottom;endArrow=block;entryX=0;entryY=0;" edge="1" parent="jMRB4c11vusRgGaPNcfT-142" target="jMRB4c11vusRgGaPNcfT-152">
          <mxGeometry relative="1" as="geometry">
            <mxPoint x="-26.940000000000055" y="190" as="sourcePoint" />
          </mxGeometry>
        </mxCell>
        <mxCell id="jMRB4c11vusRgGaPNcfT-154" value="" style="html=1;verticalAlign=bottom;endArrow=open;dashed=1;endSize=8;exitX=0;exitY=0.95;" edge="1" parent="jMRB4c11vusRgGaPNcfT-142" source="jMRB4c11vusRgGaPNcfT-152">
          <mxGeometry relative="1" as="geometry">
            <mxPoint x="-26.940000000000055" y="266" as="targetPoint" />
          </mxGeometry>
        </mxCell>
        <mxCell id="jMRB4c11vusRgGaPNcfT-155" value="" style="html=1;points=[];perimeter=orthogonalPerimeter;" vertex="1" parent="1">
          <mxGeometry x="508.05999999999995" y="-790" width="10" height="80" as="geometry" />
        </mxCell>
        <mxCell id="jMRB4c11vusRgGaPNcfT-156" value="查询" style="html=1;verticalAlign=bottom;endArrow=block;entryX=0;entryY=0;" edge="1" parent="1" target="jMRB4c11vusRgGaPNcfT-155">
          <mxGeometry relative="1" as="geometry">
            <mxPoint x="438.05999999999995" y="-790" as="sourcePoint" />
          </mxGeometry>
        </mxCell>
        <mxCell id="jMRB4c11vusRgGaPNcfT-157" value="成功" style="html=1;verticalAlign=bottom;endArrow=open;dashed=1;endSize=8;exitX=0;exitY=0.95;" edge="1" parent="1" source="jMRB4c11vusRgGaPNcfT-155">
          <mxGeometry relative="1" as="geometry">
            <mxPoint x="438.05999999999995" y="-714" as="targetPoint" />
          </mxGeometry>
        </mxCell>
        <mxCell id="jMRB4c11vusRgGaPNcfT-158" value="" style="html=1;points=[];perimeter=orthogonalPerimeter;" vertex="1" parent="1">
          <mxGeometry x="508.05999999999995" y="-790" width="10" height="80" as="geometry" />
        </mxCell>
        <mxCell id="jMRB4c11vusRgGaPNcfT-159" value="" style="html=1;verticalAlign=bottom;endArrow=block;entryX=0;entryY=0;" edge="1" parent="1" target="jMRB4c11vusRgGaPNcfT-158">
          <mxGeometry relative="1" as="geometry">
            <mxPoint x="438.05999999999995" y="-790" as="sourcePoint" />
          </mxGeometry>
        </mxCell>
        <mxCell id="jMRB4c11vusRgGaPNcfT-160" value="" style="html=1;verticalAlign=bottom;endArrow=open;dashed=1;endSize=8;exitX=0;exitY=0.95;" edge="1" parent="1" source="jMRB4c11vusRgGaPNcfT-158">
          <mxGeometry relative="1" as="geometry">
            <mxPoint x="438.05999999999995" y="-714" as="targetPoint" />
          </mxGeometry>
        </mxCell>
        <mxCell id="jMRB4c11vusRgGaPNcfT-161" value="" style="html=1;points=[];perimeter=orthogonalPerimeter;" vertex="1" parent="1">
          <mxGeometry x="508.05999999999995" y="-790" width="10" height="80" as="geometry" />
        </mxCell>
        <mxCell id="jMRB4c11vusRgGaPNcfT-162" value="" style="html=1;verticalAlign=bottom;endArrow=block;entryX=0;entryY=0;" edge="1" parent="1" target="jMRB4c11vusRgGaPNcfT-161">
          <mxGeometry relative="1" as="geometry">
            <mxPoint x="438.05999999999995" y="-790" as="sourcePoint" />
          </mxGeometry>
        </mxCell>
        <mxCell id="jMRB4c11vusRgGaPNcfT-163" value="" style="html=1;verticalAlign=bottom;endArrow=open;dashed=1;endSize=8;exitX=0;exitY=0.95;" edge="1" parent="1" source="jMRB4c11vusRgGaPNcfT-161">
          <mxGeometry relative="1" as="geometry">
            <mxPoint x="438.05999999999995" y="-714" as="targetPoint" />
          </mxGeometry>
        </mxCell>
        <mxCell id="jMRB4c11vusRgGaPNcfT-164" value="" style="html=1;points=[];perimeter=orthogonalPerimeter;" vertex="1" parent="1">
          <mxGeometry x="508.05999999999995" y="-790" width="10" height="80" as="geometry" />
        </mxCell>
        <mxCell id="jMRB4c11vusRgGaPNcfT-165" value="" style="html=1;verticalAlign=bottom;endArrow=block;entryX=0;entryY=0;" edge="1" parent="1" target="jMRB4c11vusRgGaPNcfT-164">
          <mxGeometry relative="1" as="geometry">
            <mxPoint x="438.05999999999995" y="-790" as="sourcePoint" />
          </mxGeometry>
        </mxCell>
        <mxCell id="jMRB4c11vusRgGaPNcfT-166" value="" style="html=1;verticalAlign=bottom;endArrow=open;dashed=1;endSize=8;exitX=0;exitY=0.95;" edge="1" parent="1" source="jMRB4c11vusRgGaPNcfT-164">
          <mxGeometry relative="1" as="geometry">
            <mxPoint x="438.05999999999995" y="-714" as="targetPoint" />
          </mxGeometry>
        </mxCell>
        <mxCell id="jMRB4c11vusRgGaPNcfT-167" value="&lt;span style=&quot;background-color: rgb(248 , 249 , 250)&quot;&gt;管理中心PC界面&lt;/span&gt;" style="shape=umlLifeline;perimeter=lifelinePerimeter;whiteSpace=wrap;html=1;container=1;collapsible=0;recursiveResize=0;outlineConnect=0;" vertex="1" parent="1">
          <mxGeometry x="55" y="-500" width="100" height="310" as="geometry" />
        </mxCell>
        <mxCell id="jMRB4c11vusRgGaPNcfT-168" value="" style="html=1;points=[];perimeter=orthogonalPerimeter;" vertex="1" parent="jMRB4c11vusRgGaPNcfT-167">
          <mxGeometry x="45" y="60" width="10" height="100" as="geometry" />
        </mxCell>
        <mxCell id="jMRB4c11vusRgGaPNcfT-169" value="" style="html=1;points=[];perimeter=orthogonalPerimeter;" vertex="1" parent="jMRB4c11vusRgGaPNcfT-167">
          <mxGeometry x="45" y="190" width="10" height="80" as="geometry" />
        </mxCell>
        <mxCell id="jMRB4c11vusRgGaPNcfT-170" value="&lt;span style=&quot;background-color: rgb(248 , 249 , 250)&quot;&gt;就餐卡后端服务&lt;/span&gt;" style="shape=umlLifeline;perimeter=lifelinePerimeter;whiteSpace=wrap;html=1;container=1;collapsible=0;recursiveResize=0;outlineConnect=0;" vertex="1" parent="1">
          <mxGeometry x="170" y="-500" width="100" height="300" as="geometry" />
        </mxCell>
        <mxCell id="jMRB4c11vusRgGaPNcfT-171" value="" style="html=1;points=[];perimeter=orthogonalPerimeter;" vertex="1" parent="jMRB4c11vusRgGaPNcfT-170">
          <mxGeometry x="43.06" y="190" width="10" height="80" as="geometry" />
        </mxCell>
        <mxCell id="jMRB4c11vusRgGaPNcfT-172" value="查询&lt;span style=&quot;font-size: 12px ; background-color: rgb(248 , 249 , 250)&quot;&gt;消费统计数据&lt;/span&gt;" style="html=1;verticalAlign=bottom;endArrow=block;entryX=0;entryY=0;" edge="1" parent="jMRB4c11vusRgGaPNcfT-170" target="jMRB4c11vusRgGaPNcfT-171">
          <mxGeometry relative="1" as="geometry">
            <mxPoint x="-26.940000000000055" y="190" as="sourcePoint" />
          </mxGeometry>
        </mxCell>
        <mxCell id="jMRB4c11vusRgGaPNcfT-173" value="返回&lt;span style=&quot;font-size: 12px ; background-color: rgb(248 , 249 , 250)&quot;&gt;消费统计数据&lt;/span&gt;" style="html=1;verticalAlign=bottom;endArrow=open;dashed=1;endSize=8;exitX=0;exitY=0.95;" edge="1" parent="jMRB4c11vusRgGaPNcfT-170" source="jMRB4c11vusRgGaPNcfT-171">
          <mxGeometry relative="1" as="geometry">
            <mxPoint x="-26.940000000000055" y="266" as="targetPoint" />
          </mxGeometry>
        </mxCell>
        <mxCell id="jMRB4c11vusRgGaPNcfT-174" value="" style="html=1;points=[];perimeter=orthogonalPerimeter;" vertex="1" parent="jMRB4c11vusRgGaPNcfT-170">
          <mxGeometry x="43.06" y="190" width="10" height="80" as="geometry" />
        </mxCell>
        <mxCell id="jMRB4c11vusRgGaPNcfT-175" value="" style="html=1;verticalAlign=bottom;endArrow=block;entryX=0;entryY=0;" edge="1" parent="jMRB4c11vusRgGaPNcfT-170" target="jMRB4c11vusRgGaPNcfT-174">
          <mxGeometry relative="1" as="geometry">
            <mxPoint x="-26.940000000000055" y="190" as="sourcePoint" />
          </mxGeometry>
        </mxCell>
        <mxCell id="jMRB4c11vusRgGaPNcfT-176" value="" style="html=1;verticalAlign=bottom;endArrow=open;dashed=1;endSize=8;exitX=0;exitY=0.95;" edge="1" parent="jMRB4c11vusRgGaPNcfT-170" source="jMRB4c11vusRgGaPNcfT-174">
          <mxGeometry relative="1" as="geometry">
            <mxPoint x="-26.940000000000055" y="266" as="targetPoint" />
          </mxGeometry>
        </mxCell>
        <mxCell id="jMRB4c11vusRgGaPNcfT-177" value="" style="html=1;points=[];perimeter=orthogonalPerimeter;" vertex="1" parent="jMRB4c11vusRgGaPNcfT-170">
          <mxGeometry x="43.06" y="190" width="10" height="80" as="geometry" />
        </mxCell>
        <mxCell id="jMRB4c11vusRgGaPNcfT-178" value="" style="html=1;verticalAlign=bottom;endArrow=block;entryX=0;entryY=0;" edge="1" parent="jMRB4c11vusRgGaPNcfT-170" target="jMRB4c11vusRgGaPNcfT-177">
          <mxGeometry relative="1" as="geometry">
            <mxPoint x="-26.940000000000055" y="190" as="sourcePoint" />
          </mxGeometry>
        </mxCell>
        <mxCell id="jMRB4c11vusRgGaPNcfT-179" value="" style="html=1;verticalAlign=bottom;endArrow=open;dashed=1;endSize=8;exitX=0;exitY=0.95;" edge="1" parent="jMRB4c11vusRgGaPNcfT-170" source="jMRB4c11vusRgGaPNcfT-177">
          <mxGeometry relative="1" as="geometry">
            <mxPoint x="-26.940000000000055" y="266" as="targetPoint" />
          </mxGeometry>
        </mxCell>
        <mxCell id="jMRB4c11vusRgGaPNcfT-180" value="" style="html=1;points=[];perimeter=orthogonalPerimeter;" vertex="1" parent="jMRB4c11vusRgGaPNcfT-170">
          <mxGeometry x="43.06" y="190" width="10" height="80" as="geometry" />
        </mxCell>
        <mxCell id="jMRB4c11vusRgGaPNcfT-181" value="" style="html=1;verticalAlign=bottom;endArrow=block;entryX=0;entryY=0;" edge="1" parent="jMRB4c11vusRgGaPNcfT-170" target="jMRB4c11vusRgGaPNcfT-180">
          <mxGeometry relative="1" as="geometry">
            <mxPoint x="-26.940000000000055" y="190" as="sourcePoint" />
          </mxGeometry>
        </mxCell>
        <mxCell id="jMRB4c11vusRgGaPNcfT-182" value="" style="html=1;verticalAlign=bottom;endArrow=open;dashed=1;endSize=8;exitX=0;exitY=0.95;" edge="1" parent="jMRB4c11vusRgGaPNcfT-170" source="jMRB4c11vusRgGaPNcfT-180">
          <mxGeometry relative="1" as="geometry">
            <mxPoint x="-26.940000000000055" y="266" as="targetPoint" />
          </mxGeometry>
        </mxCell>
        <mxCell id="jMRB4c11vusRgGaPNcfT-183" value="" style="html=1;points=[];perimeter=orthogonalPerimeter;" vertex="1" parent="1">
          <mxGeometry x="213.06" y="-430" width="10" height="80" as="geometry" />
        </mxCell>
        <mxCell id="jMRB4c11vusRgGaPNcfT-184" value="查询消费记录" style="html=1;verticalAlign=bottom;endArrow=block;entryX=0;entryY=0;" edge="1" parent="1" target="jMRB4c11vusRgGaPNcfT-183">
          <mxGeometry relative="1" as="geometry">
            <mxPoint x="143.05999999999995" y="-430" as="sourcePoint" />
          </mxGeometry>
        </mxCell>
        <mxCell id="jMRB4c11vusRgGaPNcfT-185" value="返回消费记录" style="html=1;verticalAlign=bottom;endArrow=open;dashed=1;endSize=8;exitX=0;exitY=0.95;" edge="1" parent="1" source="jMRB4c11vusRgGaPNcfT-183">
          <mxGeometry relative="1" as="geometry">
            <mxPoint x="143.05999999999995" y="-354" as="targetPoint" />
          </mxGeometry>
        </mxCell>
        <mxCell id="jMRB4c11vusRgGaPNcfT-186" value="" style="html=1;points=[];perimeter=orthogonalPerimeter;" vertex="1" parent="1">
          <mxGeometry x="213.06" y="-430" width="10" height="80" as="geometry" />
        </mxCell>
        <mxCell id="jMRB4c11vusRgGaPNcfT-187" value="" style="html=1;verticalAlign=bottom;endArrow=block;entryX=0;entryY=0;" edge="1" parent="1" target="jMRB4c11vusRgGaPNcfT-186">
          <mxGeometry relative="1" as="geometry">
            <mxPoint x="143.05999999999995" y="-430" as="sourcePoint" />
          </mxGeometry>
        </mxCell>
        <mxCell id="jMRB4c11vusRgGaPNcfT-188" value="" style="html=1;verticalAlign=bottom;endArrow=open;dashed=1;endSize=8;exitX=0;exitY=0.95;" edge="1" parent="1" source="jMRB4c11vusRgGaPNcfT-186">
          <mxGeometry relative="1" as="geometry">
            <mxPoint x="143.05999999999995" y="-354" as="targetPoint" />
          </mxGeometry>
        </mxCell>
        <mxCell id="jMRB4c11vusRgGaPNcfT-189" value="" style="html=1;points=[];perimeter=orthogonalPerimeter;" vertex="1" parent="1">
          <mxGeometry x="213.06" y="-430" width="10" height="80" as="geometry" />
        </mxCell>
        <mxCell id="jMRB4c11vusRgGaPNcfT-190" value="" style="html=1;verticalAlign=bottom;endArrow=block;entryX=0;entryY=0;" edge="1" parent="1" target="jMRB4c11vusRgGaPNcfT-189">
          <mxGeometry relative="1" as="geometry">
            <mxPoint x="143.05999999999995" y="-430" as="sourcePoint" />
          </mxGeometry>
        </mxCell>
        <mxCell id="jMRB4c11vusRgGaPNcfT-191" value="" style="html=1;verticalAlign=bottom;endArrow=open;dashed=1;endSize=8;exitX=0;exitY=0.95;" edge="1" parent="1" source="jMRB4c11vusRgGaPNcfT-189">
          <mxGeometry relative="1" as="geometry">
            <mxPoint x="143.05999999999995" y="-354" as="targetPoint" />
          </mxGeometry>
        </mxCell>
        <mxCell id="jMRB4c11vusRgGaPNcfT-192" value="" style="html=1;points=[];perimeter=orthogonalPerimeter;" vertex="1" parent="1">
          <mxGeometry x="213.06" y="-430" width="10" height="80" as="geometry" />
        </mxCell>
        <mxCell id="jMRB4c11vusRgGaPNcfT-193" value="" style="html=1;verticalAlign=bottom;endArrow=block;entryX=0;entryY=0;" edge="1" parent="1" target="jMRB4c11vusRgGaPNcfT-192">
          <mxGeometry relative="1" as="geometry">
            <mxPoint x="143.05999999999995" y="-430" as="sourcePoint" />
          </mxGeometry>
        </mxCell>
        <mxCell id="jMRB4c11vusRgGaPNcfT-194" value="" style="html=1;verticalAlign=bottom;endArrow=open;dashed=1;endSize=8;exitX=0;exitY=0.95;" edge="1" parent="1" source="jMRB4c11vusRgGaPNcfT-192">
          <mxGeometry relative="1" as="geometry">
            <mxPoint x="143.05999999999995" y="-354" as="targetPoint" />
          </mxGeometry>
        </mxCell>
        <mxCell id="jMRB4c11vusRgGaPNcfT-197" value="插卡" style="endArrow=classic;html=1;" edge="1" parent="1">
          <mxGeometry width="50" height="50" relative="1" as="geometry">
            <mxPoint x="313" y="-797" as="sourcePoint" />
            <mxPoint x="392.5" y="-797" as="targetPoint" />
          </mxGeometry>
        </mxCell>
        <mxCell id="jMRB4c11vusRgGaPNcfT-198" value="" style="html=1;points=[];perimeter=orthogonalPerimeter;" vertex="1" parent="1">
          <mxGeometry x="100" y="-200" width="10" height="40" as="geometry" />
        </mxCell>
        <mxCell id="jMRB4c11vusRgGaPNcfT-199" value="打印" style="edgeStyle=orthogonalEdgeStyle;html=1;align=left;spacingLeft=2;endArrow=block;rounded=0;entryX=1;entryY=0;" edge="1" target="jMRB4c11vusRgGaPNcfT-198" parent="1">
          <mxGeometry relative="1" as="geometry">
            <mxPoint x="105" y="-220" as="sourcePoint" />
            <Array as="points">
              <mxPoint x="130" y="-220" />
            </Array>
          </mxGeometry>
        </mxCell>
      </root>
    </mxGraphModel>
  </diagram>
</mxfile>
